<svg enable-background="new 0 0 100 100" viewBox="0 0 100 100" xmlns="http://www.w3.org/2000/svg"><path clip-rule="evenodd" d="m75 17.1h-3.2v-.6c.9 0 1.4-.2 1-.9-.6-1.2 2-1.1 2.4-.9.6.5.2 1.8-.2 2.4zm-4.4.8h3.9c-.4.7-1.6 2.9-2.4 2.9-.4-.5-1.4-1.9-1.5-2.9zm.3 2.8c-.1.1-.3.1-.5.2-1 1.4-.4 1.2-2.1 2.3 0 2.3.1 2.5.6 4.6v.1s-.1.1-.1.1c-.4.1-1 .2-1.3.3 0 .1.2 1.4 0 2.3-.3 1.5-3.9 4.8-4.8 5-1.2.2-2.5-.8-4.6-1.7-.6-.3-2.5-1.5-3.5-1.9-.8-.3-1.7 1.8-.6 2.3.5.3 1.3.6 1.5 1.2.7 1.9-.1 9.1-1.6 10.5-.7 0-1.3-.7-1.8-.5-.9.5-.3 3.4 0 3.9 5.8 5.9 5.1 10.3 7.5 13.6 1.1 0 .4 1.2 1.2 2.6.2.7-.1 1.9-.2 2.4v1.8c-.1.2-.1.4-.2.6v1.6c-.2.8-.4 1.8-.5 2.5-.3 1.5 1 2.7.2 4.1 0 .9 0 .7-.5 1.4 0 1.4-.3 4.2 0 5.3.2.7 2.8 3.7 3.4 4 1.5.7 3.8.5 3.1 3-4.5 1.4-7.4-.8-9.8-.8l-.1.4c-1.5 0-2.8-.4-3.1-.5 0-.4.5-3.6.7-4.1.2-.3.3-.5.5-.8.2-.5-.2-4.5-.2-5.6-1-.7-1.2-2.9-1.2-4.1-.3-.9-.3-2-.3-3.2 0-.6-.4-1.4-.1-2.1.1-.5.7-.7.8-1.1 0-.4 0-.9 0-1.3.3-1.4.2-2.1-.7-2.9-2.1 0-2.4.1-3.6-1.7-.4-.6-3.3-5.2-3.6-5.4-2.5-1.1-2-.7-3.1-2.6 0 0-.7.2-1.3 1.1-.9 1.3-2.4 5.6-2.9 7.1-.2.8 0 1.8-.4 2.5-.3.5-1.2.7-1.3 1-.9 1.6-.2 1.4-1.9 2.5-.3.4-.3 1-.5 1.4-.1.2-.2.3-.4.5-.3.6.3 1.7.2 2-.3 1-.7 2-1 2.9-.8 1.8-.7 4.2-1.4 5.3-.4.6-1.3 0-2 .5 0 .4-1.2 2.9-1.4 3.7v4.1c.2.7.8 1.3.6 2.2s-3.4.9-5.1.7c-1.2-.2-1.5-1-1.5-2 0-1.2 2.4-8.8 2.3-9.3-1.8-2 .5-4.1 1.2-6 .3-.9.1-2.2.5-3.1.6-1.2 1.3-2.3 1.9-3.5 1.2-1.1.6-1.1 1.3-2.1.5-.8 1.2-1.4.8-2.7-.8-2.6.9-6.3 1-9.1-.3-.3-1.3-.2-1.4-1-.3-1.7.6-4.7 1.2-5 .2-.1.5 0 .7-.1 0-1.3-1.3-8.4-.3-8.7.6-.2 2-.3 2.2-.5 0-.3-.2-.9-.5-1-.4-.1-1.3-.2-2-.4-2.1-.5-.2-8.8-.1-8.9.6-.8 3.3.3 3.6-1 .9-1.2-.7-5.6 2.4-11.1 1-1.8 3-3.7 5.4-2.9.8.3.3 1.4 1.7.2 0-.7-.3-1.3-.5-1.9-2.5-6.9 5.2-10.5 10.6-6.7.6.2 1 .4 1.4.7.3 1.5 1.8 4.3.3 6.1-.6.1-1.4.5-1.9.8 0 .6.1 1.2.2 1.6.1.3.3.5-.2.7-.1 0 0 .2 0 .3 1.3.2 2.6-.2 3.4-.6h1v-1.3h.3.2v-1h.5v1.7h1.3v.5h18.6v1h.9v-3.5h.7v2.9h1.6v1.6h4.9v-.5h.8v.2h2.3v1.4h-2.3v.2h-.8v-.5h-4.9v.5c-.7 0-1.4 0-2.2 0v-.3h-.9v1z" fill-rule="evenodd"/></svg>