<svg height="48" viewBox="0 0 48 48" width="48" xmlns="http://www.w3.org/2000/svg"><path d="m24 7a19 19 0 1 0 0 38 19 19 0 1 0 0-38z" fill="#dd9f05"/><path d="m24 9a17 17 0 1 0 0 34 17 17 0 1 0 0-34z" fill="#01579b"/><path d="m34 32c.917 2.917-2.167 5.045-4.583 5.045-1.322 0-2.958-.504-3.417-2.045-1.705.906-3.164 1.909-4 2.518v1.482h12.915c1.998-1.678 3.614-3.794 4.671-6.22-.855-.32-2.598-.78-5.586-.78zm2.563-17.429c-3.958 1.163-6.771 3.275-8.052 4.386-.882 2.677-2.994 5.625-6.511 8.043v7s2.796-5.109 9.417-6.667c4.316-1.016 8.045-1.305 9.581-1.386-.014-4.385-1.695-8.371-4.435-11.376z" fill="#0277bd"/><path d="m34.919 12.993c-.949-.796-1.981-1.497-3.089-2.073-1.113.515-2.506 1.223-3.83 2.08.629.787.957 1.84.985 3.04 1.45-1.023 3.453-2.188 5.934-3.047z" fill="#0091ea"/><path d="m24 11a15 15 0 1 0 0 30 15 15 0 1 0 0-30z" fill="#0277bd"/><path d="m29.557 12.076c-.517.286-1.041.59-1.557.924.629.787.957 1.84.985 3.04 1.005-.709 2.293-1.482 3.804-2.178-.994-.721-2.075-1.324-3.232-1.786z" fill="#00b0ff"/><path d="m39 26c0-4.19-1.721-7.974-4.491-10.695-2.875 1.18-4.954 2.746-5.999 3.652-.881 2.677-2.993 5.625-6.51 8.043v7s2.796-5.109 9.417-6.667c2.994-.704 5.685-1.055 7.578-1.234 0-.033.005-.065.005-.099z" fill="#0091ea"/><path d="m39.473 37h-6.473v2h4.83c.592-.629 1.141-1.295 1.643-2zm-17.473-29.893v37.786c.658.069 1.324.107 2 .107v-38c-.676 0-1.342.038-2 .107zm-11 32.723c.629.591 1.295 1.141 2 1.643v-30.946c-.705.502-1.371 1.052-2 1.643z" fill="#b3831d"/><path d="m11 36.943c.609.723 1.28 1.392 2 2.005v-25.897c-.72.613-1.391 1.282-2 2.005z" fill="#01579b"/><path d="m10 3h12v36h20l-5 6h-27l3-4v-34z" fill="#ffc107"/><path d="m24 37v-28c-.678 0-1.343.051-2 .128v29.872h12.943c.723-.609 1.392-1.28 2.005-2z" fill="#01579b"/><path d="m24 25.395c-.582.544-1.238 1.081-2 1.605v7s.636-1.149 2-2.521z" fill="#0277bd"/><path d="m22 39v-36h-2v38h20.333l1.667-2z" fill="#e8a30a"/><path d="m34 32c.917 2.917-2.167 5.045-4.583 5.045-1.322 0-2.958-.504-3.417-2.045-1.705.906-3.164 1.909-4 2.518v1.482h9.462c2.687-1.546 4.843-3.896 6.15-6.727-.919-.156-2.107-.273-3.612-.273z" fill="#0091ea"/><path d="m36.349 37.65c.196-.206.366-.435.551-.65h-6.89c-.2.027-.399.045-.593.045-.209 0-.426-.018-.644-.045h-4.773v-.836c-.824.519-1.518 1.003-2 1.354v1.482h12.915c.497-.418.971-.863 1.418-1.333.005-.005.01-.011.016-.017z" fill="#0277bd"/></svg>